<svg width="20" height="18" viewBox="0 0 20 18" fill="none" xmlns="http://www.w3.org/2000/svg">
    <path d="M9.84845 2.84845L9.84847 2.84843C10.0734 2.6234 10.1998 2.31823 10.1998 2.00003C10.1998 1.68183 10.0734 1.37666 9.84847 1.15163L9.84843 1.15159C9.6234 0.926623 9.31823 0.800244 9.00003 0.800244C8.68183 0.800244 8.37666 0.926623 8.15163 1.15159L8.15161 1.15161L1.15161 8.15161L1.15159 8.15163C0.926623 8.37666 0.800244 8.68183 0.800244 9.00003C0.800244 9.31823 0.926623 9.6234 1.15159 9.84843L1.15161 9.84845L8.15161 16.8485L8.15159 16.8485L8.15409 16.8509C8.38041 17.0695 8.68353 17.1904 8.99817 17.1877C9.31281 17.185 9.61378 17.0588 9.83627 16.8363C10.0588 16.6138 10.185 16.3128 10.1877 15.9982C10.1904 15.6835 10.0695 15.3804 9.85089 15.1541L9.85091 15.1541L9.84845 15.1516L4.89687 10.2H18C18.3183 10.2 18.6235 10.0736 18.8486 9.84856C19.0736 9.62352 19.2 9.31829 19.2 9.00003C19.2 8.68177 19.0736 8.37655 18.8486 8.1515C18.6235 7.92646 18.3183 7.80003 18 7.80003H4.89687L9.84845 2.84845Z" fill="white" stroke="white" stroke-width="0.4"/>
</svg>
