<svg width="24" height="24" viewBox="0 0 16 20" fill="none" xmlns="http://www.w3.org/2000/svg">
    <path d="M14 0.25H5C4.60218 0.25 4.22064 0.408035 3.93934 0.68934C3.65804 0.970644 3.5 1.35218 3.5 1.75V3.25H2C1.60218 3.25 1.22064 3.40804 0.93934 3.68934C0.658035 3.97064 0.5 4.35218 0.5 4.75V19C0.5 19.1989 0.579018 19.3897 0.71967 19.5303C0.860322 19.671 1.05109 19.75 1.25 19.75C1.40783 19.7495 1.56167 19.7004 1.69063 19.6094L6.5 16.1688L11.3187 19.6094C11.4299 19.6912 11.562 19.74 11.6997 19.7499C11.8374 19.7599 11.9751 19.7307 12.0969 19.6656C12.2179 19.6014 12.3192 19.5056 12.3902 19.3884C12.4611 19.2712 12.4991 19.137 12.5 19V15.3156L14.3187 16.6094C14.4437 16.7014 14.5949 16.7507 14.75 16.75C14.9489 16.75 15.1397 16.671 15.2803 16.5303C15.421 16.3897 15.5 16.1989 15.5 16V1.75C15.5 1.35218 15.342 0.970644 15.0607 0.68934C14.7794 0.408035 14.3978 0.25 14 0.25ZM14 14.5469L12.5 13.4688V4.75C12.5 4.35218 12.342 3.97064 12.0607 3.68934C11.7794 3.40804 11.3978 3.25 11 3.25H5V1.75H14V14.5469Z" fill="url(#paint0_linear_204_1060)"/>
    <defs>
        <linearGradient id="paint0_linear_204_1060" x1="8" y1="0.25" x2="8" y2="19.7518" gradientUnits="userSpaceOnUse">
            <stop stop-color="#E1D24A"/>
            <stop offset="1" stop-color="#C69223"/>
        </linearGradient>
    </defs>
</svg>
