<svg width="21" height="21" viewBox="0 0 21 21" fill="none" xmlns="http://www.w3.org/2000/svg">
    <path d="M19.942 14.0748L15.0195 11.9756C14.7655 11.8618 14.4867 11.8146 14.2093 11.8384C13.932 11.8623 13.6654 11.9565 13.4346 12.1121L10.8002 13.8649C9.19456 13.085 7.89459 11.7925 7.10564 10.1913L8.84794 7.5254C9.00248 7.29436 9.09687 7.02839 9.12253 6.75162C9.14819 6.47485 9.10431 6.19605 8.99488 5.94054L6.88523 1.01802C6.73802 0.685631 6.48876 0.408776 6.17359 0.227604C5.85843 0.046432 5.49375 -0.0296393 5.13244 0.0104221C3.71508 0.196097 2.41337 0.890149 1.46933 1.96354C0.525286 3.03693 0.00315121 4.41661 0 5.84608C0 14.1797 6.78027 20.96 15.1139 20.96C16.5434 20.9568 17.9231 20.4347 18.9965 19.4907C20.0698 18.5466 20.7639 17.2449 20.9496 15.8276C20.9896 15.4663 20.9136 15.1016 20.7324 14.7864C20.5512 14.4712 20.2744 14.222 19.942 14.0748Z" fill="url(#paint0_linear_195_662)"/>
    <defs>
        <linearGradient id="paint0_linear_195_662" x1="10.48" y1="0" x2="10.48" y2="20.96" gradientUnits="userSpaceOnUse">
            <stop stop-color="#E1D24A"/>
            <stop offset="1" stop-color="#C69223"/>
        </linearGradient>
    </defs>
</svg>
